<svg xmlns="http://www.w3.org/2000/svg" viewBox="0 0 16 16" shape-rendering="crispEdges">
  <rect width="16" height="16" fill="none"/>
  <path fill="#2f1958" d="M2 1h12v12h-1v1h-2v1H5v-1H3v-1H2z"/>
  <path fill="#5f3dc4" d="M3 2h10v10h-1v1H4v-1H3z"/>
  <path fill="#8f7aea" d="M4 3h4v1H4zm0 1h3v1H4zm0 1h2v1H4z"/>
  <path fill="#f6c344" d="M10 3h1v1h1v1h-1v1h-1V5H9V4h1z"/>
  <path fill="#d7e2f2" d="M9 5h1v1H9zm-1 1h1v1H8zM7 7h1v1H7zM6 8h1v1H6zM5 9h1v1H5z"/>
  <path fill="#aebbd0" d="M10 6h1v1h-1zM9 7h1v1H9zM8 8h1v1H8zM7 9h1v1H7zM6 10h1v1H6z"/>
  <path fill="#ffd43b" d="M4 10h2v1H4zm1 1h2v1H5z"/>
  <path fill="#24113f" d="M4 12h8v1H4zm2 1h4v1H6z"/>
</svg>
